<svg xmlns="http://www.w3.org/2000/svg" viewBox="0 0 179.31 160.78"><defs><style>.cls-1{fill:#010101;}</style></defs><g id="Layer_2" data-name="Layer 2"><g id="Layer_1-2" data-name="Layer 1"><path class="cls-1" d="M177,154.2a22.27,22.27,0,0,0-5.92-.55q-13.15-.06-26.32,0c-3.6,0-5.16-1.5-5-5.05.08-1.65,0-3.31,0-5q0-55.78,0-111.58c0-8.26.08-16.53-.05-24.79,0-2.59.24-5.42-2.6-7C106.91-.19,76.74.1,46.57.09,43,2.32,44.15,6,44.14,9.07Q44,77.71,44.07,146.33c0,7-.3,7.29-7.21,7.31-9.93,0-19.85,0-29.78,0-2.46,0-5-.22-7.08,1.6v5c1.39.84,2.91.47,4.37.47q84.93,0,169.85,0c.66,0,1.33,0,2,0,1.58,0,3-.09,3.08-2.22C179.37,156.55,179.25,154.84,177,154.2ZM126.45,79.91c-.06,1.86-1,3.06-3.09,3s-2-.79-2.15-2.58c-.25-2.59.92-8-1.36-8.28-1.13-.11-7.31.41-7.84-1.27,0-1.18,3.53-.81,5-.89,1.83-.09,4.24.08,4-2.44-.22-2,2-1.85,3.48-1.71,1.73.17,2,1.51,2,2.86C126.55,72.37,126.56,76.14,126.45,79.91Z"/></g></g></svg>